<?xml version="1.0" standalone="no"?><!DOCTYPE svg PUBLIC "-//W3C//DTD SVG 1.1//EN" "http://www.w3.org/Graphics/SVG/1.1/DTD/svg11.dtd"><svg t="1674147293212" class="icon" viewBox="0 0 1035 1024" version="1.1" xmlns="http://www.w3.org/2000/svg" p-id="2885" xmlns:xlink="http://www.w3.org/1999/xlink" width="129.375" height="128"><path d="M517.613889 1010.377409c-66.653788 0-131.336031-13.065657-192.264544-38.829395-58.812166-24.872645-111.631728-60.482966-156.977244-105.828482S87.427403 767.565592 62.543619 708.742288C36.779881 647.824914 23.714224 583.142671 23.714224 516.477744s13.065657-131.336031 38.829395-192.253404c24.872645-58.823304 60.482966-111.631728 105.828482-156.977244s98.15394-80.944698 156.977244-105.828482c60.917374-25.763738 125.599617-38.829396 192.264544-38.829396s131.336031 13.065657 192.253404 38.829396c58.823304 24.872645 111.631728 60.482966 156.977244 105.828482 45.345516 45.345516 80.944698 98.15394 105.828482 156.977244 25.763738 60.917374 38.829396 125.599617 38.829396 192.253404s-13.065657 131.336031-38.829396 192.264544c-24.872645 58.812166-60.482966 111.631728-105.828482 156.977244-45.345516 45.345516-98.15394 80.944698-156.977244 105.828482-60.917374 25.763738-125.599617 38.829396-192.253404 38.829395z m0-898.678849c-223.196624 0-404.779185 181.582561-404.779185 404.779184s181.582561 404.779185 404.779185 404.779185 404.779185-181.582561 404.779184-404.779185-181.582561-404.779185-404.779184-404.779184z m-19.091677 579.099334l285.617718-285.617717c17.398599-17.398599 17.398599-45.612844 0-63.011444-17.398599-17.398599-45.612844-17.398599-63.011444 0L467.010921 596.286299 314.088152 443.36353c-17.398599-17.398599-45.612844-17.398599-63.011443 0s-17.398599 45.612844 0 63.011443l184.43406 184.43406c8.354001 8.354001 19.693165 13.054519 31.500152 13.054518s23.146152-4.689379 31.500152-13.054518z" p-id="2886" fill="#84579D"></path></svg>