<?xml version="1.0" standalone="no"?><!DOCTYPE svg PUBLIC "-//W3C//DTD SVG 1.1//EN" "http://www.w3.org/Graphics/SVG/1.1/DTD/svg11.dtd"><svg t="1674425969826" class="icon" viewBox="0 0 1024 1024" version="1.1" xmlns="http://www.w3.org/2000/svg" p-id="5364" xmlns:xlink="http://www.w3.org/1999/xlink" width="128" height="128"><path d="M947.88864 327.83744c-23.82976-56.34176-57.93536-106.92992-101.36576-150.36032-43.4304-43.4304-94.01856-77.53472-150.36032-101.36576C637.8048 51.42784 575.84384 38.912 512 38.912c-63.84384 0-125.80608 12.51584-184.16256 37.19808-56.34176 23.83104-106.92992 57.93536-150.36032 101.36576-43.4304 43.43168-77.53472 94.01984-101.36576 150.36032C51.42784 386.19392 38.912 448.15616 38.912 512c0 63.84384 12.51584 125.8048 37.19808 184.16256 23.83104 56.34176 57.93536 106.92992 101.36576 150.36032 43.43168 43.43168 94.01984 77.536 150.36032 101.36576C386.19392 972.57216 448.15616 985.088 512 985.088c63.84384 0 125.8048-12.51456 184.16256-37.19936 56.34176-23.82976 106.92992-57.93536 150.36032-101.36576 43.43168-43.4304 77.536-94.01856 101.36576-150.36032C972.57216 637.8048 985.088 575.84384 985.088 512 985.088 448.15616 972.57216 386.19392 947.88864 327.83744zM512 882.688c-204.39808 0-370.688-166.28992-370.688-370.688 0-204.39808 166.28992-370.688 370.688-370.688 204.39808 0 370.688 166.28992 370.688 370.688C882.688 716.39808 716.39808 882.688 512 882.688z" fill="#2c2c2c" p-id="5365"></path><path d="M563.2 243.968c0-28.27648-22.92224-51.2-51.2-51.2-28.27648 0-51.2 22.92352-51.2 51.2L460.8 512c0 28.27776 22.92352 51.2 51.2 51.2 2.23488 0 4.43264-0.15872 6.592-0.43648 2.16064 0.27776 4.35712 0.43648 6.592 0.43648L793.216 563.2c28.27776 0 51.2-22.92224 51.2-51.2 0-28.27648-22.92224-51.2-51.2-51.2L563.2 460.8 563.2 243.968z" fill="#2c2c2c" p-id="5366"></path></svg>